<?xml version="1.0" standalone="no"?>
<!DOCTYPE svg PUBLIC "-//W3C//DTD SVG 20010904//EN"
 "http://www.w3.org/TR/2001/REC-SVG-20010904/DTD/svg10.dtd">
<svg version="1.0" xmlns="http://www.w3.org/2000/svg"
 width="653.000000pt" height="880.000000pt" viewBox="0 0 723.000000 1280.000000"
 preserveAspectRatio="xMidYMid meet">
<metadata>
Created by potrace 1.15, written by Peter Selinger 2001-2017
</metadata>
<g transform="translate(0.000000,1280.000000) scale(0.100000,-0.100000)"
fill="#fff" stroke="none">
<path d="M386 12528 c-3 -150 -11 -511 -16 -803 -6 -291 -15 -750 -20 -1020
-5 -269 -12 -651 -16 -847 l-7 -358 -107 0 c-132 0 -162 -6 -196 -36 -54 -51
-7 -103 99 -111 60 -5 65 -7 54 -24 -8 -13 -8 -24 3 -46 7 -15 16 -77 21 -137
10 -143 21 -160 108 -164 l61 -3 0 -75 c0 -93 17 -138 59 -152 25 -9 34 -8 53
8 21 17 23 25 20 110 -2 85 -1 92 15 85 64 -27 172 -55 230 -61 37 -3 77 -12
89 -19 12 -8 122 -143 244 -302 277 -357 368 -469 529 -652 149 -169 242 -252
351 -312 150 -82 134 -63 154 -180 20 -117 60 -268 82 -310 8 -16 14 -35 14
-44 0 -10 8 -29 19 -43 10 -15 18 -34 18 -43 0 -9 11 -43 24 -75 23 -57 24
-67 21 -259 -1 -110 -4 -879 -5 -1710 -1 -830 -5 -1562 -10 -1625 -4 -63 -12
-245 -17 -405 -17 -479 -49 -1254 -55 -1350 -9 -135 -33 -286 -56 -357 -31
-94 -59 -143 -149 -263 -94 -125 -111 -156 -135 -247 -26 -98 -49 -128 -160
-211 -56 -41 -117 -95 -137 -119 l-35 -43 294 3 295 3 -8 -23 c-3 -12 -7 -40
-7 -61 0 -35 8 -47 84 -123 46 -47 102 -93 125 -104 105 -51 216 -4 414 175
41 37 91 85 110 105 l35 38 220 -14 c825 -53 816 -53 866 -38 l48 14 81 -65
c128 -104 268 -165 378 -167 79 -1 292 33 292 46 -1 6 -7 37 -14 68 -8 31 -12
59 -10 61 3 2 -2 10 -11 17 -25 21 -18 25 37 23 29 -2 286 -4 570 -6 381 -2
514 0 507 9 -5 6 -6 13 -3 16 15 16 -68 138 -169 246 -103 112 -114 140 -146
372 -51 364 -82 1030 -112 2395 -16 745 -16 749 174 891 60 44 118 95 129 113
29 46 26 101 -13 196 -23 55 -33 97 -33 134 -1 53 0 55 32 63 63 17 65 37 26
338 -36 285 -145 1182 -222 1840 l-47 405 50 100 c71 141 161 413 245 745 18
69 36 129 40 134 7 7 920 -11 928 -19 2 -1 -105 -344 -237 -761 -132 -418
-236 -760 -230 -762 5 -2 9 -16 9 -30 0 -40 53 -125 103 -166 53 -43 130 -79
217 -102 84 -22 244 -22 327 -1 128 33 239 107 289 192 49 85 54 61 -177 885
-116 415 -214 776 -216 802 l-5 46 -71 7 c-40 4 -258 19 -484 34 -227 15 -415
30 -419 33 -3 4 0 42 7 85 16 100 16 480 0 593 -22 158 -31 177 -124 268 l-85
82 -103 0 c-167 0 -209 -21 -169 -84 10 -18 18 -45 17 -61 -2 -23 5 -33 29
-49 29 -19 32 -27 39 -90 3 -38 11 -80 16 -93 9 -24 -24 -629 -35 -641 -8 -8
-101 -15 -94 -7 4 4 -9 28 -28 53 -48 63 -83 141 -144 317 -66 193 -160 384
-213 431 -36 33 -187 114 -236 127 -31 8 -29 59 4 81 34 22 33 67 -4 172 -34
99 -44 113 -117 172 -96 78 -96 78 -105 264 -10 193 -14 212 -86 393 -52 129
-57 147 -60 235 -5 102 -16 146 -43 160 -9 5 -22 26 -28 48 -14 46 -45 80
-126 135 -87 59 -142 77 -244 79 -108 2 -144 -13 -228 -98 -66 -67 -107 -140
-102 -183 1 -14 -1 -32 -5 -38 -5 -7 -7 -40 -6 -74 l2 -61 -55 -49 c-61 -53
-140 -176 -165 -257 -18 -60 -12 -155 17 -240 12 -34 20 -68 17 -75 -3 -7 -33
-24 -67 -38 -33 -13 -75 -37 -92 -54 -31 -30 -158 -279 -158 -309 0 -9 9 -30
21 -45 l21 -28 -22 -43 c-15 -29 -20 -54 -17 -75 5 -31 5 -31 -74 -59 -83 -30
-199 -98 -199 -117 0 -6 -6 -9 -12 -7 -7 3 -34 -27 -61 -66 -57 -83 -76 -101
-179 -162 -123 -72 -141 -104 -173 -307 -25 -154 -33 -166 -135 -191 -94 -24
-175 -83 -245 -178 l-20 -28 -130 112 c-71 61 -195 170 -275 242 -80 73 -197
177 -260 233 -129 113 -164 147 -266 254 -75 79 -148 125 -261 164 l-63 22 70
5 c99 7 140 38 126 94 -11 42 -57 54 -205 54 -127 0 -131 1 -135 23 -3 12 -7
209 -11 437 -3 228 -10 624 -15 880 -5 256 -14 733 -20 1060 -5 327 -13 664
-16 748 l-6 152 -48 0 -47 0 -7 -272z m138 -3323 c-4 -8 -10 -15 -15 -15 -4 0
-6 7 -3 15 4 8 10 15 15 15 4 0 6 -7 3 -15z m6456 -1700 c105 -379 193 -698
196 -707 5 -16 -2 -18 -53 -18 -32 0 -102 3 -155 7 l-98 6 -4 31 c-3 17 -23
321 -46 676 -22 355 -42 668 -45 695 -7 76 -3 62 205 -690z m-231 480 c6 -88
24 -369 41 -625 16 -256 32 -488 35 -516 l5 -51 -261 -7 c-144 -3 -264 -5
-266 -2 -2 2 81 273 186 602 104 330 202 639 217 689 15 49 29 85 30 80 1 -6
7 -82 13 -170z m-2084 -7635 c22 -42 19 -45 -16 -16 -17 14 -36 26 -42 27 -7
1 -1 5 13 9 14 4 26 8 27 9 1 1 9 -12 18 -29z"/>
<path d="M5484 9770 c-49 -20 -72 -103 -39 -146 9 -12 14 -43 15 -86 l0 -66
58 3 c31 3 60 4 65 5 4 0 7 30 7 68 1 43 6 74 15 86 30 39 11 107 -36 132 -31
16 -54 17 -85 4z"/>
</g>
</svg>
